<mxfile host="app.diagrams.net" agent="Mozilla/5.0 (Windows NT 10.0; Win64; x64) AppleWebKit/537.36 (KHTML, like Gecko) Chrome/138.0.0.0 Safari/537.36" version="28.0.1">
  <diagram name="PÃ¡gina-1" id="etNP3WNTOG4WrfbZHdKX">
    <mxGraphModel grid="1" page="1" gridSize="10" guides="1" tooltips="1" connect="1" arrows="1" fold="1" pageScale="1" pageWidth="827" pageHeight="1169" math="0" shadow="0">
      <root>
        <mxCell id="0" />
        <mxCell id="1" parent="0" />
        <mxCell id="iIHJuiiagJ5OCoeEBrkb-1" value="" style="ellipse;html=1;shape=startState;fillColor=#000000;strokeColor=#ff0000;" vertex="1" parent="1">
          <mxGeometry x="50" y="460" width="30" height="30" as="geometry" />
        </mxCell>
        <mxCell id="iIHJuiiagJ5OCoeEBrkb-2" value="" style="html=1;verticalAlign=bottom;endArrow=open;endSize=8;strokeColor=#FF0000;rounded=0;fontSize=12;entryX=0;entryY=0.811;entryDx=0;entryDy=0;entryPerimeter=0;" edge="1" parent="1" source="iIHJuiiagJ5OCoeEBrkb-1" target="iIHJuiiagJ5OCoeEBrkb-20">
          <mxGeometry relative="1" as="geometry">
            <mxPoint x="320" y="470" as="targetPoint" />
          </mxGeometry>
        </mxCell>
        <mxCell id="iIHJuiiagJ5OCoeEBrkb-3" value="Cargar Contrato" style="edgeLabel;html=1;align=center;verticalAlign=middle;resizable=0;points=[];fontSize=12;" vertex="1" connectable="0" parent="iIHJuiiagJ5OCoeEBrkb-2">
          <mxGeometry x="-0.3554" y="-2" relative="1" as="geometry">
            <mxPoint x="40" y="-2" as="offset" />
          </mxGeometry>
        </mxCell>
        <mxCell id="iIHJuiiagJ5OCoeEBrkb-4" style="edgeStyle=none;curved=1;rounded=0;orthogonalLoop=1;jettySize=auto;html=1;entryX=0;entryY=0.5;entryDx=0;entryDy=0;fontSize=12;startSize=8;endSize=8;" edge="1" parent="1">
          <mxGeometry relative="1" as="geometry">
            <mxPoint x="357.9999999999998" y="475" as="sourcePoint" />
            <mxPoint x="357.9999999999998" y="475" as="targetPoint" />
          </mxGeometry>
        </mxCell>
        <mxCell id="iIHJuiiagJ5OCoeEBrkb-5" style="edgeStyle=none;curved=1;rounded=0;orthogonalLoop=1;jettySize=auto;html=1;entryX=0;entryY=0.5;entryDx=0;entryDy=0;fontSize=12;startSize=8;endSize=8;" edge="1" parent="1">
          <mxGeometry relative="1" as="geometry">
            <mxPoint x="357.9999999999998" y="475" as="sourcePoint" />
            <mxPoint x="357.9999999999998" y="475" as="targetPoint" />
          </mxGeometry>
        </mxCell>
        <mxCell id="iIHJuiiagJ5OCoeEBrkb-15" value="" style="html=1;verticalAlign=bottom;endArrow=classic;endSize=8;strokeColor=#FF0000;rounded=0;fontSize=12;exitX=1;exitY=0.5;exitDx=0;exitDy=0;entryX=0;entryY=0.5;entryDx=0;entryDy=0;endFill=1;" edge="1" parent="1" source="iIHJuiiagJ5OCoeEBrkb-28" target="iIHJuiiagJ5OCoeEBrkb-17">
          <mxGeometry relative="1" as="geometry">
            <mxPoint x="1240" y="630" as="targetPoint" />
            <mxPoint x="1050.0000000000002" y="565" as="sourcePoint" />
            <Array as="points" />
          </mxGeometry>
        </mxCell>
        <mxCell id="iIHJuiiagJ5OCoeEBrkb-16" value="" style="html=1;verticalAlign=bottom;endArrow=classic;endSize=8;strokeColor=light-dark(#FF9090,#FF9090);rounded=0;fontSize=12;entryX=0;entryY=0.5;entryDx=0;entryDy=0;exitX=1;exitY=0.5;exitDx=0;exitDy=0;endFill=1;" edge="1" parent="1" source="iIHJuiiagJ5OCoeEBrkb-23" target="iIHJuiiagJ5OCoeEBrkb-17">
          <mxGeometry relative="1" as="geometry">
            <mxPoint x="874" y="830" as="targetPoint" />
            <mxPoint x="1079.9999999999995" y="285" as="sourcePoint" />
          </mxGeometry>
        </mxCell>
        <mxCell id="iIHJuiiagJ5OCoeEBrkb-17" value="" style="ellipse;html=1;shape=endState;fillColor=#000000;strokeColor=#ff0000;" vertex="1" parent="1">
          <mxGeometry x="1211" y="455" width="30" height="30" as="geometry" />
        </mxCell>
        <mxCell id="iIHJuiiagJ5OCoeEBrkb-19" value="Cargar" style="swimlane;fontStyle=0;childLayout=stackLayout;horizontal=1;startSize=30;horizontalStack=0;resizeParent=1;resizeParentMax=0;resizeLast=0;collapsible=1;marginBottom=0;whiteSpace=wrap;html=1;" vertex="1" parent="1">
          <mxGeometry x="320" y="425" width="170" height="90" as="geometry" />
        </mxCell>
        <mxCell id="iIHJuiiagJ5OCoeEBrkb-20" value="Entry/Registrar Contrato" style="text;strokeColor=none;fillColor=none;align=left;verticalAlign=middle;spacingLeft=4;spacingRight=4;overflow=hidden;points=[[0,0.5],[1,0.5]];portConstraint=eastwest;rotatable=0;whiteSpace=wrap;html=1;" vertex="1" parent="iIHJuiiagJ5OCoeEBrkb-19">
          <mxGeometry y="30" width="170" height="30" as="geometry" />
        </mxCell>
        <mxCell id="iIHJuiiagJ5OCoeEBrkb-21" value="Do/Validar Archivo (PDF)" style="text;strokeColor=none;fillColor=none;align=left;verticalAlign=middle;spacingLeft=4;spacingRight=4;overflow=hidden;points=[[0,0.5],[1,0.5]];portConstraint=eastwest;rotatable=0;whiteSpace=wrap;html=1;" vertex="1" parent="iIHJuiiagJ5OCoeEBrkb-19">
          <mxGeometry y="60" width="170" height="30" as="geometry" />
        </mxCell>
        <mxCell id="iIHJuiiagJ5OCoeEBrkb-23" value="Eliminado" style="swimlane;fontStyle=0;childLayout=stackLayout;horizontal=1;startSize=30;horizontalStack=0;resizeParent=1;resizeParentMax=0;resizeLast=0;collapsible=1;marginBottom=0;whiteSpace=wrap;html=1;" vertex="1" parent="1">
          <mxGeometry x="910" y="250" width="170" height="60" as="geometry" />
        </mxCell>
        <mxCell id="iIHJuiiagJ5OCoeEBrkb-24" value="Entry/Marcar Eliminado" style="text;strokeColor=none;fillColor=none;align=left;verticalAlign=middle;spacingLeft=4;spacingRight=4;overflow=hidden;points=[[0,0.5],[1,0.5]];portConstraint=eastwest;rotatable=0;whiteSpace=wrap;html=1;" vertex="1" parent="iIHJuiiagJ5OCoeEBrkb-23">
          <mxGeometry y="30" width="170" height="30" as="geometry" />
        </mxCell>
        <mxCell id="iIHJuiiagJ5OCoeEBrkb-27" value="Descargado" style="swimlane;fontStyle=0;childLayout=stackLayout;horizontal=1;startSize=30;horizontalStack=0;resizeParent=1;resizeParentMax=0;resizeLast=0;collapsible=1;marginBottom=0;whiteSpace=wrap;html=1;" vertex="1" parent="1">
          <mxGeometry x="910" y="600" width="170" height="90" as="geometry" />
        </mxCell>
        <mxCell id="iIHJuiiagJ5OCoeEBrkb-28" value="Entry/Registrar Descarga" style="text;strokeColor=none;fillColor=none;align=left;verticalAlign=middle;spacingLeft=4;spacingRight=4;overflow=hidden;points=[[0,0.5],[1,0.5]];portConstraint=eastwest;rotatable=0;whiteSpace=wrap;html=1;" vertex="1" parent="iIHJuiiagJ5OCoeEBrkb-27">
          <mxGeometry y="30" width="170" height="30" as="geometry" />
        </mxCell>
        <mxCell id="iIHJuiiagJ5OCoeEBrkb-29" value="Do/Confirmar Descarga" style="text;strokeColor=none;fillColor=none;align=left;verticalAlign=middle;spacingLeft=4;spacingRight=4;overflow=hidden;points=[[0,0.5],[1,0.5]];portConstraint=eastwest;rotatable=0;whiteSpace=wrap;html=1;" vertex="1" parent="iIHJuiiagJ5OCoeEBrkb-27">
          <mxGeometry y="60" width="170" height="30" as="geometry" />
        </mxCell>
        <mxCell id="iIHJuiiagJ5OCoeEBrkb-41" style="edgeStyle=orthogonalEdgeStyle;rounded=0;orthogonalLoop=1;jettySize=auto;html=1;entryX=0;entryY=0.5;entryDx=0;entryDy=0;strokeColor=light-dark(#FF9090,#FF9090);" edge="1" parent="1" source="iIHJuiiagJ5OCoeEBrkb-32" target="iIHJuiiagJ5OCoeEBrkb-23">
          <mxGeometry relative="1" as="geometry">
            <mxPoint x="910" y="285" as="targetPoint" />
            <Array as="points">
              <mxPoint x="755" y="280" />
            </Array>
          </mxGeometry>
        </mxCell>
        <mxCell id="iIHJuiiagJ5OCoeEBrkb-43" value="Eliminar Contrato (Administrador)" style="edgeLabel;html=1;align=center;verticalAlign=middle;resizable=0;points=[];" vertex="1" connectable="0" parent="iIHJuiiagJ5OCoeEBrkb-41">
          <mxGeometry x="0.0949" y="1" relative="1" as="geometry">
            <mxPoint as="offset" />
          </mxGeometry>
        </mxCell>
        <mxCell id="iIHJuiiagJ5OCoeEBrkb-32" value="Enviado" style="swimlane;fontStyle=0;childLayout=stackLayout;horizontal=1;startSize=30;horizontalStack=0;resizeParent=1;resizeParentMax=0;resizeLast=0;collapsible=1;marginBottom=0;whiteSpace=wrap;html=1;" vertex="1" parent="1">
          <mxGeometry x="670" y="440" width="170" height="60" as="geometry" />
        </mxCell>
        <mxCell id="iIHJuiiagJ5OCoeEBrkb-33" value="Entry/Notificar Envio" style="text;strokeColor=none;fillColor=none;align=left;verticalAlign=middle;spacingLeft=4;spacingRight=4;overflow=hidden;points=[[0,0.5],[1,0.5]];portConstraint=eastwest;rotatable=0;whiteSpace=wrap;html=1;" vertex="1" parent="iIHJuiiagJ5OCoeEBrkb-32">
          <mxGeometry y="30" width="170" height="30" as="geometry" />
        </mxCell>
        <mxCell id="iIHJuiiagJ5OCoeEBrkb-38" style="edgeStyle=orthogonalEdgeStyle;rounded=0;orthogonalLoop=1;jettySize=auto;html=1;strokeColor=light-dark(#FF9090,#FF9090);" edge="1" parent="1" source="iIHJuiiagJ5OCoeEBrkb-20">
          <mxGeometry relative="1" as="geometry">
            <mxPoint x="671" y="470" as="targetPoint" />
            <Array as="points">
              <mxPoint x="671" y="470" />
            </Array>
          </mxGeometry>
        </mxCell>
        <mxCell id="iIHJuiiagJ5OCoeEBrkb-39" value="Enviar Contrato" style="edgeLabel;html=1;align=center;verticalAlign=middle;resizable=0;points=[];" vertex="1" connectable="0" parent="iIHJuiiagJ5OCoeEBrkb-38">
          <mxGeometry x="0.0192" relative="1" as="geometry">
            <mxPoint as="offset" />
          </mxGeometry>
        </mxCell>
        <mxCell id="iIHJuiiagJ5OCoeEBrkb-40" style="edgeStyle=orthogonalEdgeStyle;rounded=0;orthogonalLoop=1;jettySize=auto;html=1;entryX=0;entryY=0.5;entryDx=0;entryDy=0;strokeColor=light-dark(#FF9090,#FF9090);" edge="1" parent="1" source="iIHJuiiagJ5OCoeEBrkb-32" target="iIHJuiiagJ5OCoeEBrkb-17">
          <mxGeometry relative="1" as="geometry" />
        </mxCell>
        <mxCell id="iIHJuiiagJ5OCoeEBrkb-42" style="edgeStyle=orthogonalEdgeStyle;rounded=0;orthogonalLoop=1;jettySize=auto;html=1;entryX=0;entryY=0.5;entryDx=0;entryDy=0;strokeColor=light-dark(#FF9090,#FF9090);" edge="1" parent="1" source="iIHJuiiagJ5OCoeEBrkb-33" target="iIHJuiiagJ5OCoeEBrkb-28">
          <mxGeometry relative="1" as="geometry">
            <Array as="points">
              <mxPoint x="755" y="645" />
            </Array>
          </mxGeometry>
        </mxCell>
        <mxCell id="iIHJuiiagJ5OCoeEBrkb-44" value="Descargar Contrato" style="edgeLabel;html=1;align=center;verticalAlign=middle;resizable=0;points=[];" vertex="1" connectable="0" parent="iIHJuiiagJ5OCoeEBrkb-42">
          <mxGeometry x="0.0397" relative="1" as="geometry">
            <mxPoint as="offset" />
          </mxGeometry>
        </mxCell>
      </root>
    </mxGraphModel>
  </diagram>
</mxfile>
